<svg width="650" height="619" viewBox="0 0 650 619" fill="none" xmlns="http://www.w3.org/2000/svg">
  <g id="about" clip-path="url(#clip0)">
  <g id="company">
  <path id="moon" d="M136.444 125.938C161.297 125.938 181.444 105.791 181.444 80.9379C181.444 56.0851 161.297 35.9379 136.444 35.9379C111.591 35.9379 91.444 56.0851 91.444 80.9379C91.444 105.791 111.591 125.938 136.444 125.938Z" fill="#FF6584"/>
  <path id="Vector" d="M132.877 104.5H127.121V69.059C127.121 64.2694 125.218 59.6761 121.832 56.2894C118.445 52.9026 113.852 51 109.062 51H84.1212V0H80.1212V51H46.1212V104.5H12.6212V617.5H200.621V172.244C200.621 154.277 193.484 137.046 180.779 124.342C168.075 111.637 150.844 104.5 132.877 104.5V104.5Z" fill="#F2F2F2"/>
  <path id="Vector_2" d="M305.086 417H300.121V410.059C300.119 405.456 298.357 401.027 295.197 397.68C292.037 394.333 287.717 392.32 283.121 392.053V345H279.121V392H261.121V417H197.121V618H339.121V451.035C339.121 446.566 338.241 442.14 336.53 438.011C334.82 433.881 332.313 430.129 329.152 426.969C325.992 423.808 322.24 421.301 318.111 419.591C313.981 417.88 309.555 417 305.086 417V417Z" fill="#F2F2F2"/>
  <path id="Vector_3" d="M579.121 273.108V261.059C579.119 256.456 577.357 252.027 574.197 248.68C571.037 245.333 566.717 243.32 562.121 243.053V196H558.121V243H540.121V273H455.121V618H643.121V340.744C643.12 323.426 636.487 306.766 624.584 294.187C612.681 281.608 596.413 274.065 579.121 273.108Z" fill="#F2F2F2"/>
  <g id="leaf">
  <path id="Vector_4" d="M370.915 575.759C364.886 575.758 359.053 573.619 354.452 569.723C349.851 565.827 346.782 560.425 345.789 554.478L345.781 554.429L345.812 554.391C347.442 552.439 348.759 550.247 349.717 547.892C348.577 549.353 347.2 550.613 345.643 551.618L345.483 551.725L345.474 551.533C345.454 551.111 345.443 550.692 345.443 550.287C345.429 545.956 346.526 541.693 348.629 537.907C350.732 534.12 353.771 530.936 357.456 528.659C353.718 524.76 350.906 520.069 349.227 514.935C347.549 509.801 347.047 504.355 347.759 499C348.471 493.646 350.378 488.52 353.34 484.003C356.302 479.486 360.242 475.693 364.869 472.906C369.496 470.118 374.69 468.408 380.068 467.901C385.446 467.393 390.869 468.103 395.935 469.976C401.001 471.849 405.581 474.838 409.335 478.722C413.09 482.605 415.922 487.284 417.622 492.411L417.655 492.508L417.56 492.546C415.391 493.481 413.057 493.973 410.695 493.992C413.154 494.688 415.707 494.997 418.261 494.907L418.349 494.904L418.37 494.989C419.084 497.851 419.445 500.79 419.444 503.74C419.444 503.847 419.444 503.953 419.443 504.059C419.436 506.353 419.912 508.622 420.841 510.72C421.77 512.817 423.131 514.695 424.834 516.231C427.555 518.707 429.707 521.742 431.143 525.129C432.579 528.516 433.264 532.174 433.151 535.851C433.038 539.528 432.13 543.137 430.489 546.43C428.848 549.722 426.513 552.62 423.645 554.924L423.593 554.966L423.532 554.939C419.766 553.23 417.144 551.323 415.358 548.981C416.565 551.93 418.326 554.62 420.545 556.907L420.642 557.006L420.522 557.076C416.715 559.294 412.399 560.487 407.994 560.539C403.589 560.592 399.246 559.501 395.387 557.375C393.838 562.67 390.617 567.321 386.206 570.634C381.796 573.947 376.432 575.745 370.915 575.759V575.759Z" fill="#F2F2F2"/>
  <path id="Vector_5" d="M361.841 616.332C361.729 616.332 361.622 616.291 361.538 616.218C361.454 616.145 361.399 616.044 361.383 615.934C360.173 605.142 360.1 594.253 361.167 583.446C362.764 566.398 367.894 541.843 383.261 521.676C383.297 521.627 383.343 521.586 383.396 521.555C383.449 521.525 383.507 521.505 383.567 521.496C383.628 521.488 383.689 521.492 383.748 521.507C383.807 521.523 383.862 521.55 383.911 521.587C383.959 521.624 384 521.67 384.03 521.722C384.061 521.775 384.081 521.833 384.089 521.894C384.097 521.954 384.093 522.016 384.077 522.075C384.061 522.133 384.034 522.189 383.997 522.237C368.763 542.23 363.675 566.605 362.089 583.533C361.028 594.267 361.098 605.084 362.299 615.804C362.309 615.869 362.304 615.936 362.285 616C362.266 616.063 362.234 616.122 362.19 616.172C362.147 616.222 362.093 616.263 362.033 616.29C361.972 616.318 361.907 616.332 361.841 616.332V616.332Z" fill="#3F3D56"/>
  <path id="Vector_6" d="M369.522 548.342C369.425 548.342 369.329 548.311 369.25 548.254C369.171 548.197 369.112 548.116 369.082 548.023C369.052 547.93 369.052 547.83 369.082 547.737C369.112 547.644 369.171 547.562 369.25 547.505C373.628 544.541 378.359 542.133 383.331 540.337C391.1 537.493 402.914 534.914 415.077 538.785C415.193 538.822 415.291 538.904 415.347 539.013C415.404 539.122 415.414 539.249 415.377 539.366C415.34 539.483 415.258 539.58 415.149 539.637C415.04 539.693 414.913 539.704 414.796 539.667C402.883 535.875 391.283 538.411 383.65 541.206C378.757 542.972 374.103 545.339 369.794 548.254C369.715 548.311 369.62 548.342 369.522 548.342V548.342Z" fill="#3F3D56"/>
  </g>
  </g>
  <g id="man">
  <g id="body">
  <path id="Vector_7" d="M357.596 373.37C359.04 373.219 360.434 372.754 361.678 372.007C362.923 371.26 363.989 370.249 364.801 369.045C365.612 367.841 366.15 366.474 366.376 365.04C366.603 363.606 366.512 362.14 366.11 360.745L394.947 340.402L377.872 333.712L353.106 354.055C350.807 354.886 348.893 356.53 347.725 358.678C346.558 360.825 346.219 363.326 346.772 365.707C347.326 368.088 348.733 370.183 350.728 371.595C352.723 373.007 355.167 373.639 357.596 373.37H357.596Z" fill="#FFB6B6"/>
  <path id="Vector_8" d="M552.034 386.581C552.688 385.285 553.049 383.861 553.092 382.41C553.135 380.959 552.86 379.516 552.285 378.182C551.71 376.849 550.85 375.658 549.766 374.693C548.681 373.728 547.398 373.013 546.006 372.598L544.459 337.342L529.607 348.1L533.354 379.93C532.811 382.313 533.161 384.813 534.338 386.955C535.515 389.097 537.437 390.733 539.74 391.553C542.042 392.373 544.566 392.32 546.832 391.403C549.098 390.487 550.949 388.771 552.034 386.581V386.581Z" fill="#FFB6B6"/>
  <path id="Vector_9" d="M504.392 601.895H489.546L482.483 544.63L504.395 544.631L504.392 601.895Z" fill="#FFB6B6"/>
  <path id="Vector_10" d="M508.178 616.287L460.307 616.285V615.679C460.308 610.738 462.271 605.999 465.765 602.504C469.259 599.01 473.998 597.047 478.94 597.047H478.941L487.686 590.413L504.001 597.048L508.179 597.048L508.178 616.287Z" fill="#2F2E41"/>
  <path id="Vector_11" d="M410.119 601.502L395.426 599.378L396.625 541.691L418.312 544.826L410.119 601.502Z" fill="#FFB6B6"/>
  <path id="Vector_12" d="M411.808 616.287L364.429 609.438L364.516 608.839C365.223 603.948 367.844 599.539 371.802 596.58C375.76 593.622 380.731 592.357 385.622 593.063L385.623 593.063L395.226 587.748L410.425 596.648L414.561 597.246L411.808 616.287Z" fill="#2F2E41"/>
  <path id="Vector_13" d="M526.708 381.183C518.599 379.156 510.491 377.129 502.382 375.102C489.458 371.871 476.534 368.64 463.609 365.408L454.708 363.183C454.469 363.121 454.219 363.119 453.979 363.177C453.777 363.215 453.586 363.297 453.419 363.417C453.252 363.537 453.114 363.693 453.014 363.872C451.017 367.201 449.02 370.529 447.023 373.858L432.889 397.414C427.383 406.591 421.877 415.767 416.372 424.943L403.231 446.845C402.06 448.796 400.889 450.747 399.718 452.699C399.23 453.351 398.91 454.115 398.787 454.921C398.385 459.419 398.094 463.93 397.747 468.432C397.048 477.52 396.349 486.607 395.65 495.694L393.181 527.801C392.459 537.179 391.738 546.557 391.016 555.935C390.632 560.933 390.248 565.931 389.863 570.928L389.809 571.63C389.813 571.957 389.921 572.275 390.12 572.535C390.318 572.796 390.596 572.986 390.91 573.076L414.503 580.94L417.91 582.076C418.294 582.18 418.703 582.128 419.049 581.932C419.394 581.736 419.648 581.411 419.756 581.028C421.305 571.734 422.854 562.441 424.403 553.147C426.895 538.193 429.387 523.239 431.879 508.286C432.27 505.944 432.66 503.603 433.05 501.262C433.316 500.091 433.515 498.906 433.644 497.712C434.12 497.145 434.513 496.512 434.809 495.833C436.257 493.03 436.581 489.78 435.713 486.746L435.595 486.368C435.58 486.315 435.568 486.276 435.555 486.234C435.664 485.576 435.774 484.918 435.884 484.26C436.207 482.322 436.53 480.383 436.853 478.445C437.111 476.894 437.37 475.342 437.629 473.791C437.641 473.716 437.663 473.631 437.682 473.546C437.589 473.615 437.483 473.664 437.371 473.689C437.429 473.675 437.502 473.55 437.547 473.513C437.601 473.469 437.652 473.418 437.706 473.372C437.715 473.325 437.721 473.277 437.722 473.229C437.707 472.946 437.86 473.049 437.862 473.233C438.843 472.376 439.727 471.334 440.638 470.422C445.296 465.764 449.954 461.106 454.612 456.448C463.011 448.049 471.41 439.65 479.809 431.251V561.837C479.809 568.002 479.607 574.207 479.809 580.37C479.812 580.456 479.809 580.543 479.809 580.63C479.815 581.026 479.975 581.404 480.255 581.684C480.535 581.964 480.913 582.124 481.309 582.13H508.309C508.704 582.12 509.08 581.959 509.359 581.68C509.639 581.4 509.8 581.024 509.809 580.63C510.14 576.988 510.471 573.347 510.802 569.706C511.558 561.399 512.313 553.092 513.068 544.784C513.891 535.734 514.713 526.683 515.536 517.633L517.137 500.021C517.176 499.592 517.246 499.144 517.262 498.708C517.322 498.563 517.387 498.4 517.423 498.322C517.671 497.791 517.919 497.26 518.166 496.729C519.469 493.935 520.427 491.166 520.06 488.02C519.963 487.126 519.777 486.243 519.503 485.386C519.354 484.93 519.176 484.483 518.983 484.044C518.881 483.812 518.777 483.572 518.656 483.349C518.655 483.33 518.656 483.311 518.658 483.293C519.078 481.04 519.082 478.624 519.29 476.345C519.666 472.202 520.043 468.058 520.42 463.915L522.69 438.945L523.526 429.746L525.81 404.622C526.441 397.679 527.072 390.736 527.704 383.793C527.739 383.405 527.774 383.017 527.809 382.63C527.808 382.301 527.7 381.983 527.502 381.721C527.303 381.46 527.024 381.271 526.708 381.183V381.183Z" fill="#2F2E41"/>
  <path id="Vector_14" d="M437.682 473.546C437.735 473.513 437.779 473.467 437.81 473.412C437.842 473.358 437.859 473.296 437.862 473.233C437.809 473.279 437.759 473.328 437.706 473.372C437.698 473.431 437.695 473.486 437.682 473.546Z" fill="#2F2E41"/>
  <path id="Vector_15" d="M508.309 211.63L490.309 193.63V184.63L454.309 193.63V211.63C454.309 211.63 427.309 265.63 436.309 292.63C441.595 308.487 443.777 333.659 444.677 351.734C444.762 353.453 447.057 355.423 447.121 357C447.178 358.389 441.079 361.742 441.121 363C441.383 370.861 445.309 373.63 445.309 373.63L526.309 382.63C525.747 376.048 527.297 374.461 527.121 368C527.063 365.87 522.135 359.116 522.121 357C522.108 355.009 525.081 352.719 525.108 350.741C525.126 349.465 525.152 348.191 525.187 346.921C525.785 324.954 528.944 303.79 535.309 283.63L508.309 211.63Z" fill="#0E0B37"/>
  <path id="Vector_16" d="M527.635 367.523L525.813 298.765L489.057 232.604C487.194 229.246 486.742 225.286 487.798 221.594C488.855 217.902 491.334 214.781 494.69 212.916C498.047 211.051 502.007 210.595 505.7 211.648C509.392 212.702 512.516 215.178 514.383 218.534L553.816 289.512L553.809 289.656L551.621 331.026L548.638 346.958L550.4 351.809L549.596 366.478L527.635 367.523Z" fill="#0E0B37"/>
  <path id="Vector_17" d="M383.427 359.376L361.295 345.061L414.935 297.825L443.242 227.628C444.038 225.654 445.26 223.879 446.819 222.431C448.379 220.982 450.239 219.895 452.266 219.247C454.293 218.599 456.439 218.406 458.55 218.681C460.66 218.956 462.684 219.693 464.478 220.839V220.839C467.324 222.66 469.445 225.417 470.474 228.635C471.502 231.853 471.375 235.33 470.113 238.464L439.737 313.79L425.465 322.376L420.083 329.74L415.491 329.519L413.989 334.661L405.402 338.423L383.427 359.376Z" fill="#0E0B37"/>
  </g>
  <g id="head">
  <path id="Vector_18" d="M499.309 144.758C499.309 150.9 497.488 156.904 494.076 162.011C490.664 167.117 485.814 171.098 480.139 173.448C474.465 175.798 468.221 176.413 462.198 175.215C456.174 174.017 450.64 171.059 446.298 166.716C441.955 162.374 438.997 156.84 437.799 150.817C436.601 144.793 437.216 138.549 439.566 132.875C441.916 127.2 445.897 122.35 451.003 118.938C456.11 115.526 462.114 113.705 468.256 113.705V113.705C476.471 113.684 484.358 116.928 490.182 122.723C496.005 128.517 499.289 136.388 499.309 144.604C499.309 144.655 499.309 144.707 499.309 144.758Z" fill="#FFB6B6"/>
  <path id="Vector_19" d="M437.305 103.048C440.943 95.2254 447.983 96.7719 454.14 99.4235C461.936 97.6941 469.351 92.5165 477.752 95.5785C486.027 107.614 513.809 104.073 507.898 123.666C507.89 128.361 516.732 125.628 515.189 133.318C519.873 148.115 498.281 176.141 485.886 170.239C488.952 164.621 495.955 151.86 485.333 150.594C462.486 171.853 482.976 110.112 454.268 128.067C444.763 136.766 431.75 111.749 437.305 103.048Z" fill="#2F2E41"/>
  <path id="Vector_20" d="M437.305 103.048C440.943 95.2254 447.983 96.7719 454.14 99.4235C461.936 97.6941 469.351 92.5165 477.752 95.5785C486.027 107.614 513.809 104.073 507.898 123.666C507.89 128.361 516.732 125.628 515.189 133.318C519.873 148.115 498.281 176.141 485.886 170.239C488.952 164.621 495.955 151.86 485.333 150.594C462.486 171.853 482.976 110.112 454.268 128.067C444.763 136.766 431.75 111.749 437.305 103.048Z" fill="#2F2E41"/>
  <path id="Vector_21" d="M437.305 103.048C440.943 95.2254 447.983 96.7719 454.14 99.4235C461.936 97.6941 469.351 92.5165 477.752 95.5785C486.027 107.614 513.809 104.073 507.898 123.666C507.89 128.361 516.732 125.628 515.189 133.318C519.873 148.115 498.281 176.141 485.886 170.239C488.952 164.621 495.955 151.86 485.333 150.594C462.486 171.853 482.976 110.112 454.268 128.067C444.763 136.766 431.75 111.749 437.305 103.048Z" fill="#2F2E41"/>
  <path id="Vector_22" d="M437.305 103.048C440.943 95.2254 447.983 96.7719 454.14 99.4235C461.936 97.6941 469.351 92.5165 477.752 95.5785C486.027 107.614 513.809 104.073 507.898 123.666C507.89 128.361 516.732 125.628 515.189 133.318C519.873 148.115 498.281 176.141 485.886 170.239C488.952 164.621 495.955 151.86 485.333 150.594C462.486 171.853 482.976 110.112 454.268 128.067C444.763 136.766 431.75 111.749 437.305 103.048Z" fill="#2F2E41"/>
  <path id="Vector_23" d="M437.305 103.048C440.943 95.2254 447.983 96.7719 454.14 99.4235C461.936 97.6941 469.351 92.5165 477.752 95.5785C486.027 107.614 513.809 104.073 507.898 123.666C507.89 128.361 516.732 125.628 515.189 133.318C519.873 148.115 498.281 176.141 485.886 170.239C488.952 164.621 495.955 151.86 485.333 150.594C462.486 171.853 482.976 110.112 454.268 128.067C444.763 136.766 431.75 111.749 437.305 103.048Z" fill="#2F2E41"/>
  <path id="Vector_24" d="M437.305 103.048C440.943 95.2254 447.983 96.7719 454.14 99.4235C461.936 97.6941 469.351 92.5165 477.752 95.5785C486.027 107.614 513.809 104.073 507.898 123.666C507.89 128.361 516.732 125.628 515.189 133.318C519.873 148.115 498.281 176.141 485.886 170.239C488.952 164.621 495.955 151.86 485.333 150.594C462.486 171.853 482.976 110.112 454.268 128.067C444.763 136.766 431.75 111.749 437.305 103.048Z" fill="#2F2E41"/>
  <path id="Vector_25" d="M437.305 103.048C440.943 95.2254 447.983 96.7719 454.14 99.4235C461.936 97.6941 469.351 92.5165 477.752 95.5785C486.027 107.614 513.809 104.073 507.898 123.666C507.89 128.361 516.732 125.628 515.189 133.318C519.873 148.115 498.281 176.141 485.886 170.239C488.952 164.621 495.955 151.86 485.333 150.594C462.486 171.853 482.976 110.112 454.268 128.067C444.763 136.766 431.75 111.749 437.305 103.048Z" fill="#2F2E41"/>
  <path id="Vector_26" d="M437.305 103.048C440.943 95.2254 447.983 96.7719 454.14 99.4235C461.936 97.6941 469.351 92.5165 477.752 95.5785C486.027 107.614 513.809 104.073 507.898 123.666C507.89 128.361 516.732 125.628 515.189 133.318C519.873 148.115 498.281 176.141 485.886 170.239C488.952 164.621 495.955 151.86 485.333 150.594C462.486 171.853 482.976 110.112 454.268 128.067C444.763 136.766 431.75 111.749 437.305 103.048Z" fill="#2F2E41"/>
  <path id="Vector_27" d="M488.591 160.975C488.999 160.043 489.124 159.011 488.951 158.008C488.778 157.005 488.314 156.076 487.617 155.334C487.085 154.784 486.47 154.32 485.795 153.96L485.532 153.891C484.778 153.695 483.982 153.749 483.262 154.046C482.542 154.344 481.939 154.867 481.544 155.538L481.406 155.774C481.124 156.252 480.958 156.789 480.92 157.342C480.882 157.895 480.973 158.45 481.185 158.962L481.708 160.219L478.394 165.687C478.25 165.923 478.203 166.205 478.262 166.475C478.32 166.744 478.479 166.982 478.707 167.138L479.437 167.637C479.556 167.718 479.69 167.775 479.831 167.804C479.971 167.832 480.117 167.833 480.258 167.805C480.399 167.777 480.532 167.721 480.652 167.64C480.771 167.56 480.873 167.457 480.951 167.336L483.888 162.84C484.187 162.969 484.503 163.057 484.826 163.101C485.599 163.206 486.386 163.055 487.066 162.671C487.746 162.287 488.281 161.692 488.591 160.975V160.975Z" fill="white"/>
  <path id="Vector_28" d="M483.396 160.303C483.22 160.193 483.095 160.018 483.048 159.815C483.002 159.613 483.037 159.401 483.147 159.224L484.308 157.365C484.363 157.277 484.434 157.201 484.517 157.141C484.601 157.081 484.696 157.038 484.796 157.015C484.897 156.991 485.001 156.988 485.102 157.005C485.204 157.022 485.301 157.059 485.389 157.113C485.476 157.168 485.552 157.239 485.612 157.323C485.671 157.407 485.714 157.502 485.737 157.602C485.76 157.703 485.763 157.807 485.746 157.908C485.729 158.01 485.692 158.107 485.637 158.194L484.475 160.054C484.365 160.23 484.19 160.355 483.987 160.402C483.785 160.448 483.573 160.413 483.396 160.303V160.303Z" fill="#2F2E41"/>
  </g>
  <path id="Vector_29" d="M648.485 618.616H1.1907C0.875513 618.615 0.573534 618.489 0.350983 618.266C0.128431 618.043 0.003479 617.74 0.003479 617.425C0.003479 617.11 0.128431 616.808 0.350983 616.584C0.573534 616.361 0.875513 616.235 1.1907 616.234H648.485C648.8 616.235 649.102 616.361 649.324 616.584C649.547 616.808 649.672 617.11 649.672 617.425C649.672 617.74 649.547 618.043 649.324 618.266C649.102 618.489 648.8 618.615 648.485 618.616Z" fill="#CACACA"/>
  <path id="Vector_30" d="M374.172 376.93L359.654 384.367C358.783 384.812 357.772 384.893 356.841 384.593C355.91 384.293 355.136 383.635 354.69 382.766L335.865 346.017C335.42 345.146 335.339 344.134 335.639 343.204C335.939 342.273 336.596 341.499 337.466 341.053L351.984 333.616C352.855 333.171 353.867 333.089 354.798 333.39C355.728 333.69 356.502 334.347 356.949 335.217L375.773 371.965C376.218 372.836 376.3 373.848 375.999 374.779C375.699 375.709 375.042 376.483 374.172 376.93Z" fill="#3F3D56"/>
  <path id="Vector_31" d="M352.344 334.718L350.728 335.546C350.584 335.62 350.475 335.748 350.425 335.902C350.375 336.056 350.389 336.224 350.463 336.368C350.613 336.663 350.641 337.006 350.539 337.322C350.438 337.637 350.215 337.899 349.92 338.05L342.017 342.099C341.722 342.25 341.379 342.277 341.063 342.176C340.748 342.074 340.486 341.851 340.335 341.557C340.261 341.412 340.133 341.303 339.978 341.254C339.824 341.204 339.656 341.217 339.512 341.291L338.087 342.021C337.427 342.36 336.929 342.947 336.701 343.653C336.474 344.359 336.535 345.126 336.873 345.787L355.563 382.274C355.902 382.933 356.489 383.432 357.195 383.659C357.901 383.887 358.668 383.825 359.329 383.488L373.586 376.185C374.245 375.846 374.744 375.259 374.971 374.553C375.199 373.848 375.137 373.08 374.8 372.42L356.109 335.932C355.77 335.273 355.184 334.774 354.478 334.547C353.772 334.319 353.004 334.381 352.344 334.718V334.718Z" fill="white"/>
  </g>
  </g>
  <defs>
  <clipPath id="clip0">
  <rect width="649.675" height="618.616" fill="white"/>
  </clipPath>
  </defs>
</svg>
