<svg width="615" height="529" viewBox="0 0 615 529" fill="none" xmlns="http://www.w3.org/2000/svg">
<g id="contact" clip-path="url(#clip0)">
<g id="msg-woman">
<path id="Vector" d="M434.574 200.328C434.684 200.812 434.756 201.305 434.789 201.8L473.36 224.052L482.735 218.655L492.73 231.739L477.061 242.907C475.795 243.809 474.271 244.276 472.717 244.238C471.163 244.2 469.663 243.659 468.443 242.697L428.67 211.319C426.875 211.984 424.92 212.086 423.065 211.612C421.211 211.139 419.545 210.112 418.288 208.668C417.032 207.224 416.244 205.432 416.031 203.53C415.818 201.628 416.189 199.706 417.095 198.02C418 196.334 419.398 194.963 421.101 194.091C422.805 193.218 424.734 192.885 426.631 193.136C428.529 193.386 430.305 194.209 431.724 195.493C433.143 196.778 434.137 198.464 434.574 200.328V200.328Z" fill="#FFB6B6"/>
<path id="Vector_2" d="M473.895 221.595C474.018 221.028 474.261 220.493 474.609 220.028C474.956 219.563 475.4 219.179 475.91 218.901L493.718 209.198C496.089 207.408 499.074 206.632 502.017 207.039C504.96 207.447 507.621 209.005 509.417 211.372C511.213 213.738 511.997 216.721 511.597 219.665C511.198 222.609 509.647 225.274 507.284 227.076L493.012 241.575C492.605 241.989 492.113 242.31 491.57 242.517C491.028 242.723 490.447 242.811 489.867 242.772C489.288 242.734 488.724 242.572 488.213 242.296C487.702 242.02 487.257 241.637 486.907 241.174L474.619 224.881C474.269 224.418 474.023 223.884 473.898 223.317C473.773 222.75 473.772 222.163 473.895 221.595V221.595Z" fill="#3F3D56"/>
<path id="Vector_3" d="M504.904 165.976C507.466 157.81 513.293 150.321 521.35 147.561C529.409 144.801 541.208 149.006 547.266 155.043C558.347 166.087 558.688 179.607 551.075 191.596C549.561 191.516 544.335 191.456 542.803 191.399L540.635 184.173V191.328C528.672 190.958 516.217 191.19 503.756 191.429C502.639 182.94 502.342 174.141 504.904 165.976Z" fill="#2F2E41"/>
<path id="Vector_4" d="M502.281 507.932H491.37L486.179 465.845L502.283 465.846L502.281 507.932Z" fill="#FFB6B6"/>
<path id="Vector_5" d="M569.528 507.932H558.617L553.426 465.845L569.53 465.846L569.528 507.932Z" fill="#FFB6B6"/>
<path id="Vector_6" d="M537.668 249.442L540.14 255.87L539.646 262.299L491.259 279.058L493.66 250.926L499.099 244.498L537.668 249.442Z" fill="#FFB6B6"/>
<path id="Vector_7" d="M522.369 191.596C531.913 191.596 539.651 183.859 539.651 174.315C539.651 164.77 531.913 157.033 522.369 157.033C512.824 157.033 505.087 164.77 505.087 174.315C505.087 183.859 512.824 191.596 522.369 191.596Z" fill="#FFB7B7"/>
<path id="Vector_8" d="M548.501 278.938V289.921C548.501 289.921 561.358 306.628 554.435 319.484L574.27 490.576H553.503L518.833 346.185L504.056 487.609H486.255L484.133 375.132C483.575 345.547 488.514 316.115 498.7 288.333V288.333L548.501 278.938Z" fill="#2F2E41"/>
<path id="Vector_9" d="M510.494 151.811C513.815 149.786 517.618 148.691 521.507 148.64C525.396 148.589 529.227 149.583 532.599 151.519C535.972 153.455 538.763 156.262 540.68 159.646C542.597 163.03 543.569 166.866 543.496 170.755C533.836 171.199 523.688 171.315 513.398 171.335L510.966 165.383L509.533 171.339C506.397 171.339 503.256 171.335 500.109 171.327C499.981 167.449 500.872 163.606 502.695 160.181C504.517 156.757 507.207 153.87 510.494 151.811V151.811Z" fill="#2F2E41"/>
<path id="Vector_10" d="M507.162 528.65H499.419L498.037 521.34L494.498 528.65H473.963C472.979 528.65 472.02 528.336 471.227 527.752C470.434 527.169 469.849 526.347 469.556 525.408C469.263 524.468 469.278 523.459 469.599 522.529C469.92 521.598 470.53 520.795 471.34 520.235L487.739 508.91V501.52L504.987 502.549L507.162 528.65Z" fill="#2F2E41"/>
<path id="Vector_11" d="M575.398 528.65H567.656L566.274 521.34L562.734 528.65H542.2C541.215 528.65 540.257 528.336 539.464 527.752C538.671 527.169 538.085 526.347 537.792 525.408C537.499 524.468 537.515 523.459 537.835 522.529C538.156 521.598 538.767 520.795 539.577 520.235L555.975 508.91V501.52L573.223 502.549L575.398 528.65Z" fill="#2F2E41"/>
<path id="Vector_12" d="M556.364 314.163C557.325 300.964 556.335 287.694 553.427 274.783C549.756 258.489 545.092 237.755 545.002 237.219C545 237.208 544.999 237.198 544.999 237.187L543.577 206.816C543.573 206.728 543.536 206.645 543.473 206.583C543.41 206.521 543.327 206.485 543.238 206.482L533.405 206.151C533.314 206.148 533.228 206.11 533.165 206.044C533.101 205.979 533.066 205.892 533.066 205.801C533.066 205.068 532.922 204.343 532.641 203.666C532.361 202.989 531.95 202.374 531.432 201.856C530.914 201.338 530.299 200.927 529.622 200.647C528.946 200.367 528.22 200.222 527.488 200.222H507.848C506.576 200.223 505.348 200.688 504.395 201.529C503.441 202.371 502.827 203.532 502.669 204.794C502.66 204.881 502.619 204.961 502.553 205.019C502.488 205.077 502.403 205.108 502.316 205.106L494.674 204.849C494.597 204.847 494.521 204.869 494.459 204.914C494.396 204.958 494.35 205.022 494.327 205.095L493.795 206.784C486.08 231.628 483.938 257.867 487.522 283.633C488.447 290.49 488.027 300.8 487.677 306.543C487.643 307.105 487.719 307.668 487.903 308.2C488.086 308.731 488.373 309.222 488.747 309.642C489.12 310.063 489.573 310.406 490.08 310.651C490.586 310.896 491.136 311.039 491.698 311.071C505.905 311.888 546.131 331.352 555.761 322.059C555.784 322.037 556.041 318.609 556.364 314.163Z" fill="#3F3D56"/>
<path id="Vector_13" d="M477.575 200.328C477.685 200.812 477.757 201.305 477.79 201.8L516.361 224.052L525.736 218.655L535.731 231.739L520.062 242.907C518.797 243.809 517.272 244.276 515.718 244.238C514.164 244.2 512.665 243.659 511.444 242.697L471.671 211.319C469.876 211.984 467.921 212.086 466.067 211.612C464.212 211.139 462.546 210.112 461.289 208.668C460.033 207.224 459.246 205.432 459.032 203.53C458.819 201.628 459.19 199.706 460.096 198.02C461.002 196.334 462.399 194.963 464.103 194.091C465.806 193.218 467.735 192.885 469.633 193.136C471.53 193.386 473.306 194.209 474.725 195.493C476.144 196.778 477.138 198.464 477.575 200.328V200.328Z" fill="#FFB6B6"/>
<path id="Vector_14" d="M516.897 221.595C517.019 221.028 517.262 220.493 517.61 220.028C517.958 219.563 518.402 219.179 518.912 218.901L536.719 209.198C539.091 207.409 542.075 206.634 545.017 207.041C547.96 207.449 550.621 209.007 552.416 211.373C554.212 213.74 554.996 216.721 554.597 219.665C554.197 222.609 552.647 225.274 550.286 227.076L536.013 241.575C535.606 241.989 535.114 242.31 534.572 242.517C534.029 242.723 533.448 242.811 532.869 242.772C532.289 242.734 531.725 242.572 531.214 242.296C530.703 242.02 530.258 241.637 529.908 241.174L517.62 224.881C517.27 224.418 517.024 223.884 516.9 223.317C516.775 222.75 516.774 222.163 516.897 221.595Z" fill="#3F3D56"/>
<path id="Vector_15" d="M613.056 528.65H441.762C441.447 528.65 441.144 528.525 440.921 528.301C440.697 528.078 440.572 527.775 440.572 527.459C440.572 527.144 440.697 526.841 440.921 526.617C441.144 526.394 441.447 526.269 441.762 526.269H613.056C613.372 526.27 613.674 526.395 613.896 526.619C614.119 526.842 614.244 527.144 614.244 527.459C614.244 527.775 614.119 528.077 613.896 528.3C613.674 528.523 613.372 528.649 613.056 528.65V528.65Z" fill="#CACACA"/>
</g>
<g id="upper-env">
<path id="Vector_16" d="M442.653 267.54L116.544 417.263C111.903 419.388 106.607 419.584 101.821 417.81C97.0338 416.036 93.1463 412.435 91.011 407.798L10.5356 232.516C8.41078 227.874 8.21402 222.578 9.98843 217.792C11.7628 213.005 15.3636 209.117 20.0006 206.982L346.109 57.2595C350.751 55.1347 356.046 54.938 360.832 56.7124C365.619 58.4868 369.507 62.0875 371.642 66.7245L452.118 242.007C454.242 246.649 454.439 251.944 452.665 256.731C450.89 261.517 447.29 265.405 442.653 267.54V267.54Z" fill="white"/>
<path id="Vector_17" d="M25.4247 218.796C23.9183 219.49 22.7485 220.753 22.1721 222.308C21.5956 223.863 21.6596 225.583 22.3498 227.091L102.825 402.374C103.519 403.88 104.782 405.05 106.337 405.626C107.892 406.203 109.612 406.139 111.12 405.448L437.228 255.726C438.735 255.032 439.905 253.769 440.481 252.214C441.057 250.659 440.994 248.939 440.303 247.431L359.828 72.1487C359.134 70.6422 357.871 69.4725 356.316 68.8961C354.761 68.3196 353.041 68.3836 351.533 69.0738L25.4247 218.796Z" fill="#E4E4E4"/>
<path id="Vector_18" d="M442.653 267.54L116.544 417.263C111.903 419.388 106.607 419.584 101.821 417.81C97.0338 416.036 93.1463 412.435 91.011 407.798L10.5356 232.516C8.41078 227.874 8.21402 222.578 9.98843 217.792C11.7628 213.005 15.3636 209.117 20.0006 206.982L346.109 57.2595C350.751 55.1347 356.046 54.938 360.832 56.7124C365.619 58.4868 369.507 62.0875 371.642 66.7245L452.118 242.007C454.242 246.649 454.439 251.944 452.665 256.731C450.89 261.517 447.29 265.405 442.653 267.54V267.54ZM20.835 208.8C16.6795 210.713 13.4528 214.197 11.8627 218.487C10.2726 222.776 10.449 227.521 12.3531 231.681L92.8286 406.963C94.7421 411.119 98.2259 414.345 102.515 415.936C106.805 417.526 111.55 417.349 115.71 415.445L441.818 265.723C445.973 263.809 449.2 260.325 450.79 256.036C452.38 251.746 452.204 247.001 450.3 242.841L369.824 67.559C367.911 63.4036 364.427 60.1769 360.138 58.5868C355.848 56.9967 351.103 57.173 346.943 59.0772L20.835 208.8Z" fill="#CACACA"/>
<path id="Vector_19" d="M361.166 188L102.093 306.945C100.006 307.9 97.6758 308.187 95.4198 307.768C93.1639 307.348 91.0924 306.243 89.4879 304.603L13.6883 226.87C12.4452 225.595 11.5263 224.041 11.0088 222.337C10.4913 220.633 10.3905 218.83 10.7147 217.079C11.0389 215.328 11.7787 213.681 12.8719 212.275C13.9651 210.869 15.3797 209.747 16.9969 209.002L349.015 55.9472C350.611 55.2119 352.359 54.8652 354.115 54.9354C355.871 55.0057 357.585 55.491 359.117 56.3515C360.649 57.212 361.956 58.4232 362.93 59.886C363.904 61.3488 364.517 63.0215 364.72 64.7671L364.765 64.7659L367.645 177.607C367.702 179.784 367.118 181.929 365.967 183.777C364.815 185.625 363.145 187.093 361.166 188V188ZM349.864 57.7583L17.8338 210.818C16.5074 211.429 15.3471 212.35 14.4505 213.503C13.5539 214.656 12.9471 216.007 12.6812 217.443C12.4153 218.879 12.498 220.358 12.9224 221.755C13.3468 223.153 14.1005 224.428 15.1201 225.474L90.9196 303.206C92.2355 304.552 93.9346 305.458 95.785 305.802C97.6354 306.146 99.5468 305.911 101.258 305.128L360.332 186.182C361.955 185.438 363.324 184.234 364.269 182.719C365.214 181.203 365.692 179.444 365.645 177.658L362.791 65.8168L363.19 65.8069L362.791 65.8168C362.752 64.3076 362.34 62.8315 361.59 61.5209C360.841 60.2104 359.778 59.1063 358.497 58.3076C357.215 57.5089 355.756 57.0407 354.249 56.9448C352.743 56.8489 351.236 57.1285 349.864 57.7583V57.7583Z" fill="#CACACA"/>
<path id="Vector_20" d="M198.704 348.913L117.987 385.971C117.402 386.241 116.768 386.392 116.124 386.417C115.48 386.442 114.837 386.339 114.232 386.116C113.628 385.892 113.073 385.551 112.6 385.113C112.127 384.674 111.745 384.147 111.476 383.561C111.207 382.975 111.056 382.342 111.032 381.698C111.008 381.053 111.111 380.411 111.335 379.806C111.56 379.202 111.901 378.647 112.34 378.175C112.779 377.702 113.306 377.321 113.893 377.053L194.609 339.994C195.792 339.453 197.141 339.403 198.36 339.855C199.579 340.308 200.569 341.226 201.111 342.408C201.654 343.59 201.705 344.939 201.254 346.159C200.802 347.378 199.885 348.369 198.704 348.913V348.913Z" fill="white"/>
<path id="Vector_21" d="M257.754 234.378C259.14 237.389 259.919 240.643 260.046 243.954C260.173 247.266 259.647 250.57 258.496 253.678C257.346 256.786 255.594 259.636 253.341 262.067C251.089 264.497 248.379 266.46 245.367 267.843C242.355 269.226 239.101 270.001 235.789 270.125C232.477 270.25 229.174 269.72 226.067 268.567C222.96 267.413 220.111 265.659 217.683 263.404C215.254 261.149 213.294 258.437 211.914 255.424" fill="#CACACA"/>
</g>
<g id="lower-env">
<path id="Vector_22" d="M439.745 505.953H80.9084C75.8034 505.948 70.909 503.917 67.2992 500.307C63.6893 496.697 61.6588 491.803 61.6531 486.698V293.824C61.6589 288.719 63.6895 283.825 67.2993 280.215C70.9091 276.605 75.8034 274.575 80.9084 274.569H439.745C444.85 274.575 449.744 276.605 453.354 280.215C456.964 283.825 458.994 288.719 459 293.824V486.698C458.994 491.803 456.964 496.697 453.354 500.307C449.744 503.917 444.85 505.948 439.745 505.953Z" fill="white"/>
<path id="Vector_23" d="M80.9084 287.569C79.25 287.571 77.66 288.231 76.4873 289.403C75.3146 290.576 74.655 292.166 74.6531 293.824V486.698C74.655 488.356 75.3146 489.946 76.4873 491.119C77.66 492.292 79.25 492.951 80.9084 492.953H439.745C441.403 492.951 442.993 492.292 444.166 491.119C445.338 489.946 445.998 488.356 446 486.698V293.824C445.998 292.166 445.338 290.576 444.166 289.403C442.993 288.231 441.403 287.571 439.745 287.569H80.9084Z" fill="#0E0B37"/>
<path id="Vector_24" d="M439.745 505.953H80.9084C75.8034 505.948 70.909 503.917 67.2992 500.307C63.6893 496.697 61.6588 491.803 61.6531 486.698V293.824C61.6589 288.719 63.6895 283.825 67.2993 280.215C70.9091 276.605 75.8034 274.575 80.9084 274.569H439.745C444.85 274.575 449.744 276.605 453.354 280.215C456.964 283.825 458.994 288.719 459 293.824V486.698C458.994 491.803 456.964 496.697 453.354 500.307C449.744 503.917 444.85 505.948 439.745 505.953ZM80.9084 276.569C76.3336 276.574 71.9477 278.394 68.7128 281.629C65.4779 284.864 63.6582 289.25 63.6531 293.824V486.698C63.6582 491.273 65.4779 495.659 68.7128 498.894C71.9477 502.129 76.3336 503.948 80.9084 503.953H439.745C444.319 503.948 448.705 502.129 451.94 498.894C455.175 495.659 456.995 491.273 457 486.698V293.824C456.995 289.25 455.175 284.864 451.94 281.629C448.705 278.394 444.319 276.574 439.745 276.569H80.9084Z" fill="#3F3D56"/>
<path id="Vector_25" d="M398.878 399.668H113.804C111.51 399.664 109.272 398.953 107.397 397.631C105.522 396.308 104.1 394.44 103.326 392.279L66.8738 290.009C66.276 288.332 66.0896 286.536 66.3302 284.772C66.5708 283.007 67.2315 281.326 68.2567 279.87C69.2819 278.415 70.6416 277.226 72.2216 276.405C73.8015 275.584 75.5556 275.154 77.3362 275.151L442.933 274.589C444.691 274.587 446.424 275.001 447.99 275.797C449.557 276.594 450.912 277.75 451.945 279.171C452.979 280.593 453.661 282.239 453.936 283.975C454.21 285.71 454.07 287.486 453.526 289.157L453.567 289.175L409.102 392.926C408.246 394.928 406.82 396.634 405.003 397.833C403.185 399.031 401.055 399.669 398.878 399.668V399.668ZM442.949 276.589L77.3389 277.151C75.8784 277.153 74.4398 277.506 73.144 278.179C71.8481 278.853 70.7328 279.828 69.892 281.022C69.0512 282.216 68.5093 283.594 68.3119 285.041C68.1145 286.489 68.2674 287.962 68.7577 289.338L105.21 391.608C105.845 393.379 107.011 394.912 108.549 395.997C110.087 397.081 111.922 397.665 113.804 397.668H398.878C400.664 397.669 402.411 397.146 403.901 396.163C405.392 395.18 406.561 393.78 407.264 392.138L451.335 289.306L451.702 289.464L451.335 289.306C451.929 287.919 452.17 286.405 452.036 284.901C451.902 283.398 451.396 281.951 450.565 280.69C449.734 279.43 448.603 278.395 447.274 277.68C445.945 276.964 444.459 276.589 442.949 276.589V276.589Z" fill="#3F3D56"/>
<path id="Vector_26" d="M285.547 398.668C285.547 405.357 282.89 411.772 278.16 416.501C273.43 421.231 267.015 423.888 260.327 423.888C253.638 423.888 247.223 421.231 242.493 416.501C237.763 411.772 235.106 405.357 235.106 398.668" fill="#3F3D56"/>
</g>
<path id="msg-line" d="M184.093 478.118H95.276C93.9746 478.118 92.7265 477.601 91.8063 476.681C90.8861 475.76 90.3691 474.512 90.3691 473.211C90.3691 471.909 90.8861 470.661 91.8063 469.741C92.7265 468.821 93.9746 468.304 95.276 468.304H184.093C185.395 468.304 186.643 468.821 187.563 469.741C188.483 470.661 189 471.909 189 473.211C189 474.512 188.483 475.76 187.563 476.681C186.643 477.601 185.395 478.118 184.093 478.118V478.118Z" fill="white"/>
</g>
<defs>
<clipPath id="clip0">
<rect width="614.247" height="528.65" fill="white"/>
</clipPath>
</defs>
</svg>
